<svg id="Layer_1" data-name="Layer 1" xmlns="http://www.w3.org/2000/svg" xmlns:xlink="http://www.w3.org/1999/xlink" viewBox="0 0 420.06 92.41"><defs><style>.cls-1{fill:none;}.cls-2{clip-path:url(#clip-path);}.cls-3{fill:#fff;}.cls-4{fill:#232324;}.cls-5{fill:#00924a;}.cls-6{fill:#008f4c;}</style><clipPath id="clip-path" transform="translate(0 0)"><rect class="cls-1" width="420.06" height="92.41"/></clipPath></defs><title>IHIlogo3</title><g class="cls-2"><rect class="cls-3" width="420.06" height="92.41"/><path class="cls-4" d="M35.35,20.51a5.32,5.32,0,1,1,5.32,5.32,5.32,5.32,0,0,1-5.32-5.32" transform="translate(0 0)"/><path class="cls-5" d="M18.59,33.47a4.68,4.68,0,1,1,4.68,4.68,4.68,4.68,0,0,1-4.68-4.68" transform="translate(0 0)"/><path class="cls-5" d="M16.16,52a3.51,3.51,0,1,1,3.51,3.51A3.51,3.51,0,0,1,16.16,52" transform="translate(0 0)"/><path class="cls-5" d="M22.64,68.61a2.73,2.73,0,1,1,2.73,2.73,2.73,2.73,0,0,1-2.73-2.73" transform="translate(0 0)"/><path class="cls-5" d="M57.14,73.09a4.68,4.68,0,1,1,4.68,4.68,4.68,4.68,0,0,1-4.68-4.68" transform="translate(0 0)"/><path class="cls-5" d="M38.84,74.56a3.51,3.51,0,1,1,3.51,3.51,3.51,3.51,0,0,1-3.51-3.51" transform="translate(0 0)"/><path class="cls-4" d="M72.74,64.26a5.32,5.32,0,1,1,5.32,5.32,5.32,5.32,0,0,1-5.32-5.32" transform="translate(0 0)"/><path class="cls-6" d="M38.87,54.27c4.61,0,5.66-2.63,5.86-4.37V48.42h0V30.68s-7.13-.91-7.13,4.69v19a12.49,12.49,0,0,1,1.27-.06" transform="translate(0 0)"/><path class="cls-4" d="M62.36,40.66V54a11.71,11.71,0,0,1,1.46-.08c4.62,0,5.67-2.65,5.86-4.38V48.08h0V38.71c0-2.4-1.64-7.42-6.48-7.51s-6.44,2.55-6.44,2.55V21.59h0v-5.9s-7.56-1.49-7.56,7.65V54.08a9.94,9.94,0,0,1,1.92-.15c4.73,0,5.72-2.77,5.88-4.5V48.29c0-.14,0-0.21,0-0.21l0,0V40.84c0-.75.31-3.55,2.89-3.55s2.49,3.38,2.49,3.38" transform="translate(0 0)"/><path class="cls-6" d="M80.15,30.87c-4.11,0-5.39,2.09-5.76,3.78V54.35s7.13,0.91,7.13-4.68V30.8a12.3,12.3,0,0,1-1.37.07" transform="translate(0 0)"/><rect class="cls-4" x="91.68" y="34.12" width="3.13" height="17.43"/><polygon class="cls-4" points="106.94 36.79 101.41 36.79 101.41 41.39 106.87 41.39 106.89 44.04 101.41 44.04 101.41 51.55 98.28 51.55 98.28 34.12 107.8 34.12 106.94 36.79"/><path class="cls-4" d="M115.74,40.57a18.69,18.69,0,0,1-.65-2.17h0a14.26,14.26,0,0,1-.62,2.12l-1.48,4h4.14Zm4,11-1.68-4.37H112l-1.58,4.37h-3.08L114,34h2.27l6.86,17.51h-3.34Z" transform="translate(0 0)"/><polygon class="cls-4" points="134.28 51.55 128.23 43.93 128.18 43.93 128.18 51.55 125.05 51.55 125.05 34.12 128.15 34.12 128.15 41.55 128.21 41.55 134 34.17 137.65 34.17 130.87 42.56 138.11 51.55 134.28 51.55"/><path class="cls-4" d="M146.88,40.57a18.51,18.51,0,0,1-.65-2.17h0a14.12,14.12,0,0,1-.62,2.12l-1.48,4h4.14Zm4,11-1.68-4.37h-6.08l-1.58,4.37H138.5L145.12,34h2.28l6.86,17.51h-3.34Z" transform="translate(0 0)"/><path class="cls-4" d="M160.88,36.82h-1.55v5.42h1.58a2.78,2.78,0,0,0,2.82-2.83,2.52,2.52,0,0,0-2.85-2.59m4.37,14.73c-2.64-4.5-3.83-6.66-4.48-6.88h-1.45v6.88H156.2V34.12h4.6c4.42,0,6.08,2.25,6.08,4.92a5,5,0,0,1-3.16,4.58v0c0.78,0.45,2.48,3.46,5.1,7.91h-3.57Z" transform="translate(0 0)"/><path class="cls-4" d="M177.64,40.57A18.8,18.8,0,0,1,177,38.4h0a14.12,14.12,0,0,1-.62,2.12l-1.47,4H179Zm4,11L180,47.18h-6.08l-1.58,4.37h-3.08L175.88,34h2.28L185,51.55h-3.34Z" transform="translate(0 0)"/><polygon class="cls-5" points="204.49 51.55 204.49 44.09 196.24 44.09 196.24 51.55 193.11 51.55 193.11 34.12 196.24 34.12 196.24 41.31 204.49 41.31 204.49 34.12 207.62 34.12 207.62 51.55 204.49 51.55"/><polygon class="cls-5" points="211.09 51.55 211.09 34.12 220.59 34.12 219.74 36.79 214.23 36.79 214.23 41.31 219.74 41.31 219.74 43.98 214.23 43.98 214.23 48.88 220.59 48.88 220.59 51.55 211.09 51.55"/><path class="cls-5" d="M230.27,40.57a18.8,18.8,0,0,1-.65-2.17h0a14,14,0,0,1-.62,2.12l-1.47,4h4.14Zm4,11-1.68-4.37h-6.08L225,51.55h-3.08L228.5,34h2.28l6.85,17.51H234.3Z" transform="translate(0 0)"/><polygon class="cls-5" points="239.58 51.55 239.58 34.12 242.71 34.12 242.71 48.85 248.81 48.85 248.81 51.55 239.58 51.55"/><polygon class="cls-5" points="260.69 36.79 256.03 36.79 256.03 51.55 252.87 51.55 252.87 36.79 247.93 36.79 247.93 34.12 261.44 34.12 260.69 36.79"/><polygon class="cls-5" points="274.6 51.55 274.6 44.09 266.35 44.09 266.35 51.55 263.22 51.55 263.22 34.12 266.35 34.12 266.35 41.31 274.6 41.31 274.6 34.12 277.73 34.12 277.73 51.55 274.6 51.55"/><rect class="cls-4" x="287.35" y="34.12" width="3.13" height="17.43"/><path class="cls-4" d="M306.44,51.55l-7.71-10.21c-0.72-1-1.21-1.64-1.68-2.38H297c0.05,0.58.08,1.51,0.08,2.33V51.55H294V34.12h3.18l7.42,9.81a23.17,23.17,0,0,1,1.68,2.44h0.05c-0.05-.77-0.05-1.77-0.05-2.54V34.12h3.11V51.55h-2.9Z" transform="translate(0 0)"/><path class="cls-4" d="M317.21,51.81A9,9,0,0,1,312,50.22l1.27-2.35a6.67,6.67,0,0,0,3.86,1.32c1.32,0,2.82-.55,2.82-2,0-2.49-4.14-2.93-6.21-5.31a4.54,4.54,0,0,1-1.11-3.12c0-2.59,2-4.79,5.56-4.79a8.63,8.63,0,0,1,4.19,1l-0.05,2.86a8,8,0,0,0-4-1.22c-1.37,0-2.46.61-2.46,1.77,0,3.23,7.38,3,7.38,8.46,0,3.07-2.64,5-6,5" transform="translate(0 0)"/><polygon class="cls-4" points="337.18 36.79 332.52 36.79 332.52 51.55 329.36 51.55 329.36 36.79 324.43 36.79 324.43 34.12 337.93 34.12 337.18 36.79"/><rect class="cls-4" x="339.71" y="34.12" width="3.13" height="17.43"/><polygon class="cls-4" points="357.72 36.79 353.06 36.79 353.06 51.55 349.9 51.55 349.9 36.79 344.96 36.79 344.96 34.12 358.47 34.12 357.72 36.79"/><path class="cls-4" d="M372.72,49.88a7.28,7.28,0,0,1-5.48,1.93c-2.41,0-4.16-.58-5.3-1.72a6.8,6.8,0,0,1-1.68-4.95v-11h3.13V44.93a4.49,4.49,0,0,0,1,3.07,3.78,3.78,0,0,0,2.9,1.08A4.07,4.07,0,0,0,370.39,48a4.16,4.16,0,0,0,.9-2.91v-11h3.13V45a6.8,6.8,0,0,1-1.71,4.89" transform="translate(0 0)"/><polygon class="cls-4" points="389.35 36.79 384.69 36.79 384.69 51.55 381.54 51.55 381.54 36.79 376.6 36.79 376.6 34.12 390.1 34.12 389.35 36.79"/><polygon class="cls-4" points="391.89 51.55 391.89 34.12 401.38 34.12 400.53 36.79 395.02 36.79 395.02 41.31 400.53 41.31 400.53 43.98 395.02 43.98 395.02 48.88 401.38 48.88 401.38 51.55 391.89 51.55"/><path class="cls-4" d="M197.11,64.46a1.94,1.94,0,0,0-.85-0.2,2.54,2.54,0,0,0-1.52.71v5.16h-1.67V63h1.4l0.21,0.79a3.06,3.06,0,0,1,2.12-1,1.91,1.91,0,0,1,1,.27Z" transform="translate(0 0)"/><path class="cls-4" d="M202.24,64a1.64,1.64,0,0,0-1.59,1.74h3.16A1.63,1.63,0,0,0,202.24,64m-1.57,2.91A2.1,2.1,0,0,0,202.95,69a4,4,0,0,0,1.91-.5l0.43,1a4.88,4.88,0,0,1-2.65.77A3.51,3.51,0,0,1,199,66.51c0-2,1.27-3.71,3.32-3.71s3.27,1.47,3.27,3.69v0.44h-4.88Z" transform="translate(0 0)"/><path class="cls-4" d="M210,70.29a5,5,0,0,1-2.63-.64l0.56-1.17a3.76,3.76,0,0,0,2,.59c0.83,0,1.4-.32,1.4-0.86,0-1.44-3.48-.89-3.48-3.38,0-1.17,1-2,2.75-2a5.78,5.78,0,0,1,2.13.38v1.33a5.29,5.29,0,0,0-2.06-.45c-0.69,0-1.19.21-1.19,0.71,0,1.29,3.56.91,3.56,3.33,0,1.58-1.42,2.2-3,2.2" transform="translate(0 0)"/><path class="cls-4" d="M218.29,64a1.63,1.63,0,0,0-1.59,1.74h3.16A1.63,1.63,0,0,0,218.29,64m-1.57,2.91A2.1,2.1,0,0,0,219,69a4,4,0,0,0,1.91-.5l0.43,1a4.86,4.86,0,0,1-2.65.77A3.51,3.51,0,0,1,215,66.51c0-2,1.27-3.71,3.32-3.71s3.28,1.47,3.28,3.69v0.44h-4.88Z" transform="translate(0 0)"/><path class="cls-4" d="M228.21,66.79l-1.23,0c-1.14,0-1.64.41-1.64,1.08a1.13,1.13,0,0,0,1.32,1.1,2.27,2.27,0,0,0,1.56-.58V66.79Zm0.45,3.35-0.32-.67a3.27,3.27,0,0,1-2.25.82A2.26,2.26,0,0,1,223.67,68c0-1.47,1.17-2.29,3.15-2.36l1.41,0V65.42a1.31,1.31,0,0,0-1.53-1.36,3.67,3.67,0,0,0-2,.58l-0.56-1A5,5,0,0,1,227,62.8c1.73,0,2.87.68,2.87,2.54V68a7.61,7.61,0,0,0,.14,2.18h-1.4Z" transform="translate(0 0)"/><path class="cls-4" d="M236.73,64.46a2,2,0,0,0-.85-0.2,2.55,2.55,0,0,0-1.52.71v5.16h-1.67V63h1.4l0.21,0.79a3.06,3.06,0,0,1,2.12-1,1.93,1.93,0,0,1,1,.27Z" transform="translate(0 0)"/><path class="cls-4" d="M242.17,70.29a3.46,3.46,0,0,1-3.66-3.68,3.71,3.71,0,0,1,3.88-3.82,4.25,4.25,0,0,1,2.07.48v1.35a3.34,3.34,0,0,0-1.93-.56,2.3,2.3,0,0,0-2.34,2.47A2.25,2.25,0,0,0,242.49,69a3.57,3.57,0,0,0,1.83-.51l0.45,1a4.91,4.91,0,0,1-2.6.76" transform="translate(0 0)"/><path class="cls-4" d="M251.83,70.14V65.87c0-.83-0.16-1.67-1.22-1.67a3.39,3.39,0,0,0-2,.89v5h-1.67V59.42h1.67v4.36a4.16,4.16,0,0,1,2.57-1c1.12,0,2.33.58,2.33,2.64v4.71h-1.67Z" transform="translate(0 0)"/><rect class="cls-4" x="261.4" y="57.19" width="1.11" height="16.68"/><path class="cls-4" d="M272.79,70.29A1.54,1.54,0,0,1,271,68.67V64.21h-1.32V63H271V61.36l1.67-.49V63H275l-0.53,1.23h-1.83v3.91a0.69,0.69,0,0,0,.74.83,2.49,2.49,0,0,0,1.29-.44l0.47,1a4.43,4.43,0,0,1-2.38.76" transform="translate(0 0)"/><path class="cls-4" d="M281.27,64.46a2,2,0,0,0-.85-0.2,2.54,2.54,0,0,0-1.53.71v5.16h-1.67V63h1.4l0.21,0.79a3.06,3.06,0,0,1,2.12-1,1.91,1.91,0,0,1,1,.27Z" transform="translate(0 0)"/><path class="cls-4" d="M287.53,66.79l-1.24,0c-1.14,0-1.63.41-1.63,1.08A1.13,1.13,0,0,0,286,69a2.27,2.27,0,0,0,1.56-.58V66.79ZM288,70.14l-0.32-.67a3.26,3.26,0,0,1-2.25.82A2.26,2.26,0,0,1,283,68c0-1.47,1.17-2.29,3.15-2.36l1.41,0V65.42A1.31,1.31,0,0,0,286,64.05a3.66,3.66,0,0,0-2,.58l-0.56-1a4.94,4.94,0,0,1,2.87-.82c1.73,0,2.88.68,2.88,2.54V68a7.65,7.65,0,0,0,.14,2.18H288Z" transform="translate(0 0)"/><path class="cls-4" d="M292.21,70.14m0-7.16h1.67v7.16h-1.67V63Zm1.89-2.23a1.07,1.07,0,1,1-1.06-1,1,1,0,0,1,1.06,1" transform="translate(0 0)"/><path class="cls-4" d="M301.84,70.14V65.86c0-.77-0.16-1.65-1.19-1.65a3.68,3.68,0,0,0-2.07.86v5.07h-1.67V63h1.39l0.19,0.8a4.43,4.43,0,0,1,2.7-1,2.27,2.27,0,0,1,2.31,2.56v4.79h-1.67Z" transform="translate(0 0)"/><path class="cls-4" d="M306.48,70.14m0-7.16h1.67v7.16h-1.67V63Zm1.89-2.23a1.07,1.07,0,1,1-1.06-1,1,1,0,0,1,1.06,1" transform="translate(0 0)"/><path class="cls-4" d="M316.11,70.14V65.86c0-.77-0.16-1.65-1.19-1.65a3.68,3.68,0,0,0-2.07.86v5.07h-1.67V63h1.4l0.19,0.8a4.42,4.42,0,0,1,2.7-1,2.27,2.27,0,0,1,2.31,2.56v4.79h-1.67Z" transform="translate(0 0)"/><path class="cls-4" d="M322,65.43a1.41,1.41,0,0,0,1.46,1.48,1.35,1.35,0,0,0,1.48-1.44A1.44,1.44,0,0,0,323.37,64,1.33,1.33,0,0,0,322,65.43m0.13,4.86a1.33,1.33,0,0,0-.77,1.06c0,0.65.85,1.21,2.21,1.21s2.09-.39,2.09-1c0-1-2.62-.93-3.54-1.23m1.3,3.44c-2.28,0-3.58-1-3.58-2.13a2,2,0,0,1,1.4-1.73,1,1,0,0,1-.51-0.91,1.73,1.73,0,0,1,.93-1.33,2.41,2.41,0,0,1-1.28-2.2,2.76,2.76,0,0,1,3-2.65,3.12,3.12,0,0,1,1.43.29,0.15,0.15,0,0,0,.19,0,2.79,2.79,0,0,1,2.29-.55l-0.38,1.23a1.86,1.86,0,0,0-1.08,0,2.48,2.48,0,0,1,.77,1.83c0,1.56-1.35,2.59-3.08,2.59a3,3,0,0,1-1-.13,1,1,0,0,0-.27.66c0,1.06,5.21,0,5.21,2.66,0,1.23-1.25,2.38-4.06,2.38" transform="translate(0 0)"/><rect class="cls-4" x="334.48" y="57.19" width="1.11" height="16.68"/><path class="cls-4" d="M345.43,70.29a5,5,0,0,1-2.63-.64l0.56-1.17a3.76,3.76,0,0,0,2,.59c0.83,0,1.4-.32,1.4-0.86,0-1.44-3.48-.89-3.48-3.38,0-1.17,1-2,2.75-2a5.74,5.74,0,0,1,2.12.38v1.33a5.25,5.25,0,0,0-2.05-.45c-0.69,0-1.19.21-1.19,0.71,0,1.29,3.55.91,3.55,3.33,0,1.58-1.42,2.2-3,2.2" transform="translate(0 0)"/><path class="cls-4" d="M353.75,64a1.63,1.63,0,0,0-1.59,1.74h3.16A1.63,1.63,0,0,0,353.75,64m-1.57,2.91A2.1,2.1,0,0,0,354.46,69a4,4,0,0,0,1.91-.5l0.43,1a4.88,4.88,0,0,1-2.65.77,3.51,3.51,0,0,1-3.69-3.79c0-2,1.27-3.71,3.32-3.71s3.27,1.47,3.27,3.69v0.44h-4.88Z" transform="translate(0 0)"/><path class="cls-4" d="M363.54,64.46a2,2,0,0,0-.85-0.2,2.53,2.53,0,0,0-1.53.71v5.16h-1.67V63h1.4l0.21,0.79a3,3,0,0,1,2.12-1,1.9,1.9,0,0,1,1,.27Z" transform="translate(0 0)"/><polygon class="cls-4" points="369.37 70.19 368.13 70.19 365.08 62.98 366.8 62.98 368.77 68.14 368.81 68.14 370.91 62.98 372.53 62.98 369.37 70.19"/><path class="cls-4" d="M374.66,70.14m0-7.16h1.67v7.16h-1.67V63Zm1.89-2.23a1.07,1.07,0,1,1-1.06-1,1,1,0,0,1,1.06,1" transform="translate(0 0)"/><path class="cls-4" d="M382.66,70.29A3.46,3.46,0,0,1,379,66.61a3.71,3.71,0,0,1,3.88-3.82,4.27,4.27,0,0,1,2.07.48l0,1.35a3.32,3.32,0,0,0-1.93-.56,2.3,2.3,0,0,0-2.34,2.47A2.25,2.25,0,0,0,383,69a3.57,3.57,0,0,0,1.83-.51l0.45,1a4.9,4.9,0,0,1-2.6.76" transform="translate(0 0)"/><path class="cls-4" d="M390.22,64a1.64,1.64,0,0,0-1.59,1.74h3.16A1.63,1.63,0,0,0,390.22,64m-1.58,2.91A2.1,2.1,0,0,0,390.92,69a4,4,0,0,0,1.91-.5l0.43,1a4.88,4.88,0,0,1-2.65.77,3.52,3.52,0,0,1-3.69-3.79c0-2,1.27-3.71,3.32-3.71s3.28,1.47,3.28,3.69v0.44h-4.88Z" transform="translate(0 0)"/><path class="cls-4" d="M397.94,70.29a5,5,0,0,1-2.63-.64l0.56-1.17a3.76,3.76,0,0,0,2,.59c0.83,0,1.4-.32,1.4-0.86,0-1.44-3.48-.89-3.48-3.38,0-1.17,1-2,2.75-2a5.74,5.74,0,0,1,2.12.38v1.33a5.26,5.26,0,0,0-2.05-.45c-0.69,0-1.19.21-1.19,0.71,0,1.29,3.55.91,3.55,3.33,0,1.58-1.41,2.2-3,2.2" transform="translate(0 0)"/></g></svg>