<?xml version="1.0" encoding="utf-8"?>
<!-- Generator: Adobe Illustrator 19.0.0, SVG Export Plug-In . SVG Version: 6.00 Build 0)  -->
<svg version="1.1" id="Layer_1" xmlns="http://www.w3.org/2000/svg" xmlns:xlink="http://www.w3.org/1999/xlink" x="0px" y="0px"
	 viewBox="0 0 400 73" style="enable-background:new 0 0 400 73;" xml:space="preserve">
<style type="text/css">
	.st0{fill:#010101;}
	.st1{fill:#047955;}
</style>
<g id="XMLID_2_">
	<path id="XMLID_491_" class="st0" d="M21,9.7c0-3,2.4-5.5,5.5-5.5c3,0,5.5,2.4,5.5,5.5c0,3-2.4,5.5-5.5,5.5
		C23.5,15.1,21,12.7,21,9.7"/>
	<path id="XMLID_490_" class="st1" d="M3.8,23c0-2.7,2.2-4.8,4.8-4.8c2.7,0,4.8,2.1,4.8,4.8c0,2.7-2.2,4.8-4.8,4.8
		C5.9,27.8,3.8,25.6,3.8,23"/>
	<path id="XMLID_489_" class="st1" d="M1.3,42c0-2,1.6-3.6,3.6-3.6c2,0,3.6,1.6,3.6,3.6c0,2-1.6,3.6-3.6,3.6C2.9,45.6,1.3,44,1.3,42
		"/>
	<path id="XMLID_488_" class="st1" d="M7.9,59.1c0-1.6,1.3-2.8,2.8-2.8c1.6,0,2.8,1.3,2.8,2.8c0,1.6-1.3,2.8-2.8,2.8
		C9.2,61.9,7.9,60.6,7.9,59.1"/>
	<path id="XMLID_487_" class="st1" d="M43.4,63.7c0-2.7,2.2-4.8,4.8-4.8c2.7,0,4.8,2.2,4.8,4.8c0,2.7-2.2,4.8-4.8,4.8
		C45.6,68.5,43.4,66.3,43.4,63.7"/>
	<path id="XMLID_486_" class="st1" d="M24.6,65.2c0-2,1.6-3.6,3.6-3.6c2,0,3.6,1.6,3.6,3.6c0,2-1.6,3.6-3.6,3.6
		C26.2,68.8,24.6,67.2,24.6,65.2"/>
	<path id="XMLID_485_" class="st0" d="M59.4,54.6c0-3,2.4-5.5,5.5-5.5c3,0,5.5,2.4,5.5,5.5c0,3-2.4,5.5-5.5,5.5
		C61.9,60.1,59.4,57.6,59.4,54.6"/>
	<path id="XMLID_484_" class="st1" d="M24.6,44.4c4.7,0,5.8-2.7,6-4.5v-1.4c0-0.1,0-0.1,0-0.1l0,0V20.1c0,0-7.3-0.9-7.3,4.8v19.5
		C23.7,44.4,24.1,44.4,24.6,44.4"/>
	<path id="XMLID_483_" class="st0" d="M48.7,30.4v13.7c0.4-0.1,0.9-0.1,1.5-0.1c4.7,0,5.8-2.7,6-4.5v-1.4c0-0.1,0-0.1,0-0.1l0,0
		v-9.6c0-2.5-1.7-7.6-6.7-7.7c-4.9-0.1-6.6,2.6-6.6,2.6V10.8c0,0,0,0,0,0V4.7c0,0-7.8-1.5-7.8,7.9v31.6c0.5-0.1,1.1-0.2,2-0.2
		c4.9,0,5.9-2.8,6-4.6v-1.2c0-0.1,0-0.2,0-0.2l0,0v-7.5c0-0.8,0.3-3.6,3-3.6C48.8,26.9,48.7,30.4,48.7,30.4"/>
	<path id="XMLID_482_" class="st1" d="M67,20.3c-4.2,0-5.5,2.2-5.9,3.9v20.2c0,0,7.3,0.9,7.3-4.8V20.2C68,20.3,67.6,20.3,67,20.3"/>
	<rect id="XMLID_481_" x="78.9" y="23.6" class="st0" width="3.2" height="17.9"/>
	<polygon id="XMLID_480_" class="st0" points="94.6,26.4 88.9,26.4 88.9,31.1 94.5,31.1 94.5,33.8 88.9,33.8 88.9,41.6 85.7,41.6 
		85.7,23.6 95.4,23.6 	"/>
	<path id="XMLID_477_" class="st0" d="M103.6,30.3c-0.3-0.9-0.5-1.6-0.7-2.2h0c-0.1,0.6-0.3,1.3-0.6,2.2l-1.5,4.2h4.3L103.6,30.3z
		 M107.7,41.6l-1.7-4.5h-6.2l-1.6,4.5H95l6.8-18h2.3l7,18H107.7z"/>
	<polygon id="XMLID_476_" class="st0" points="122.7,41.6 116.4,33.7 116.4,33.7 116.4,41.6 113.2,41.6 113.2,23.6 116.4,23.6 
		116.4,31.3 116.4,31.3 122.4,23.7 126.1,23.7 119.1,32.3 126.6,41.6 	"/>
	<path id="XMLID_473_" class="st0" d="M135.6,30.3c-0.3-0.9-0.5-1.6-0.7-2.2h0c-0.1,0.6-0.3,1.3-0.6,2.2l-1.5,4.2h4.3L135.6,30.3z
		 M139.7,41.6l-1.7-4.5h-6.2l-1.6,4.5H127l6.8-18h2.3l7,18H139.7z"/>
	<path id="XMLID_470_" class="st0" d="M150,26.4h-1.6V32h1.6c1.7,0,2.9-1.3,2.9-2.9C152.9,27.6,152,26.4,150,26.4 M154.5,41.6
		c-2.7-4.6-3.9-6.8-4.6-7.1h-1.5v7.1h-3.2V23.6h4.7c4.5,0,6.2,2.3,6.2,5.1c0,2.4-1.6,4-3.2,4.7v0c0.8,0.5,2.6,3.6,5.2,8.1H154.5z"/>
	<path id="XMLID_467_" class="st0" d="M167.2,30.3c-0.3-0.9-0.5-1.6-0.7-2.2h0c-0.1,0.6-0.3,1.3-0.6,2.2l-1.5,4.2h4.3L167.2,30.3z
		 M171.3,41.6l-1.7-4.5h-6.2l-1.6,4.5h-3.2l6.8-18h2.3l7,18H171.3z"/>
	<polygon id="XMLID_466_" class="st1" points="194.8,41.6 194.8,33.9 186.3,33.9 186.3,41.6 183.1,41.6 183.1,23.6 186.3,23.6 
		186.3,31 194.8,31 194.8,23.6 198,23.6 198,41.6 	"/>
	<polygon id="XMLID_465_" class="st1" points="201.6,41.6 201.6,23.6 211.3,23.6 210.4,26.4 204.8,26.4 204.8,31 210.4,31 
		210.4,33.8 204.8,33.8 204.8,38.8 211.3,38.8 211.3,41.6 	"/>
	<path id="XMLID_462_" class="st1" d="M221.3,30.3c-0.3-0.9-0.5-1.6-0.7-2.2h0c-0.1,0.6-0.3,1.3-0.6,2.2l-1.5,4.2h4.3L221.3,30.3z
		 M225.4,41.6l-1.7-4.5h-6.2l-1.6,4.5h-3.2l6.8-18h2.3l7,18H225.4z"/>
	<polygon id="XMLID_461_" class="st1" points="230.8,41.6 230.8,23.6 234,23.6 234,38.8 240.3,38.8 240.3,41.6 	"/>
	<polygon id="XMLID_460_" class="st1" points="252.5,26.4 247.7,26.4 247.7,41.6 244.5,41.6 244.5,26.4 239.4,26.4 239.4,23.6 
		253.3,23.6 	"/>
	<polygon id="XMLID_459_" class="st1" points="266.8,41.6 266.8,33.9 258.3,33.9 258.3,41.6 255.1,41.6 255.1,23.6 258.3,23.6 
		258.3,31 266.8,31 266.8,23.6 270,23.6 270,41.6 	"/>
	<rect id="XMLID_458_" x="279.9" y="23.6" class="st0" width="3.2" height="17.9"/>
	<path id="XMLID_457_" class="st0" d="M299.5,41.6l-7.9-10.5c-0.7-1-1.2-1.7-1.7-2.4h-0.1c0.1,0.6,0.1,1.6,0.1,2.4v10.5h-3.2V23.6
		h3.3l7.6,10.1c0.8,1.1,1.3,1.8,1.7,2.5h0.1c-0.1-0.8-0.1-1.8-0.1-2.6v-10h3.2v17.9H299.5z"/>
	<path id="XMLID_456_" class="st0" d="M310.6,41.8c-2.5,0-4.2-0.8-5.4-1.6l1.3-2.4c1,0.7,2.3,1.4,4,1.4c1.4,0,2.9-0.6,2.9-2.1
		c0-2.6-4.3-3-6.4-5.5c-0.7-0.8-1.1-1.8-1.1-3.2c0-2.7,2-4.9,5.7-4.9c1.9,0,3.4,0.5,4.3,1l-0.1,2.9c-1.4-0.8-2.7-1.2-4.1-1.2
		c-1.4,0-2.5,0.6-2.5,1.8c0,3.3,7.6,3.1,7.6,8.7C316.8,39.8,314,41.8,310.6,41.8"/>
	<polygon id="XMLID_455_" class="st0" points="331.1,26.4 326.3,26.4 326.3,41.6 323.1,41.6 323.1,26.4 318,26.4 318,23.6 
		331.9,23.6 	"/>
	<rect id="XMLID_454_" x="333.7" y="23.6" class="st0" width="3.2" height="17.9"/>
	<polygon id="XMLID_453_" class="st0" points="352.2,26.4 347.4,26.4 347.4,41.6 344.2,41.6 344.2,26.4 339.1,26.4 339.1,23.6 
		353,23.6 	"/>
	<path id="XMLID_452_" class="st0" d="M367.6,39.8c-1.2,1.3-3,2-5.6,2c-2.5,0-4.3-0.6-5.4-1.8c-1.2-1.2-1.7-3.1-1.7-5.1V23.6h3.2
		v11.1c0,1.3,0.3,2.4,1,3.2c0.7,0.7,1.7,1.1,3,1.1c1.5,0,2.5-0.4,3.2-1.1c0.7-0.7,0.9-1.7,0.9-3V23.6h3.2v11.2
		C369.4,36.9,368.8,38.6,367.6,39.8"/>
	<polygon id="XMLID_451_" class="st0" points="384.7,26.4 379.9,26.4 379.9,41.6 376.7,41.6 376.7,26.4 371.6,26.4 371.6,23.6 
		385.5,23.6 	"/>
	<polygon id="XMLID_450_" class="st0" points="387.3,41.6 387.3,23.6 397.1,23.6 396.2,26.4 390.5,26.4 390.5,31 396.2,31 
		396.2,33.8 390.5,33.8 390.5,38.8 397.1,38.8 397.1,41.6 	"/>
	<path id="XMLID_449_" class="st0" d="M187.2,54.8c-0.3-0.1-0.6-0.2-0.9-0.2c-0.5,0-1.1,0.3-1.6,0.7v5.3H183v-7.4h1.4l0.2,0.8
		c0.9-0.8,1.5-1,2.2-1c0.4,0,0.7,0.1,1,0.3L187.2,54.8z"/>
	<path id="XMLID_446_" class="st0" d="M192.5,54.4c-1,0-1.6,0.9-1.6,1.8h3.2C194.1,55.3,193.6,54.4,192.5,54.4 M190.9,57.4
		c0,1.2,0.9,2.1,2.3,2.1c0.7,0,1.4-0.2,2-0.5l0.4,1.1c-0.8,0.5-1.8,0.8-2.7,0.8c-2.6,0-3.8-1.9-3.8-3.9c0-2.1,1.3-3.8,3.4-3.8
		c2.1,0,3.4,1.5,3.4,3.8v0.5H190.9z"/>
	<path id="XMLID_445_" class="st0" d="M200.4,60.8c-1.2,0-2.1-0.3-2.7-0.7l0.6-1.2c0.5,0.3,1.2,0.6,2,0.6c0.9,0,1.4-0.3,1.4-0.9
		c0-1.5-3.6-0.9-3.6-3.5c0-1.2,1-2.1,2.8-2.1c0.9,0,1.6,0.2,2.2,0.4v1.4c-0.6-0.2-1.3-0.5-2.1-0.5c-0.7,0-1.2,0.2-1.2,0.7
		c0,1.3,3.7,0.9,3.7,3.4C203.5,60.2,202,60.8,200.4,60.8"/>
	<path id="XMLID_442_" class="st0" d="M209,54.4c-1,0-1.6,0.9-1.6,1.8h3.2C210.6,55.3,210,54.4,209,54.4 M207.3,57.4
		c0,1.2,0.9,2.1,2.3,2.1c0.7,0,1.4-0.2,2-0.5l0.4,1.1c-0.8,0.5-1.8,0.8-2.7,0.8c-2.6,0-3.8-1.9-3.8-3.9c0-2.1,1.3-3.8,3.4-3.8
		c2.1,0,3.4,1.5,3.4,3.8v0.5H207.3z"/>
	<path id="XMLID_439_" class="st0" d="M219.1,57.2l-1.3,0c-1.2,0-1.7,0.4-1.7,1.1c0,0.7,0.5,1.1,1.4,1.1c0.8,0,1.3-0.3,1.6-0.6V57.2
		z M219.6,60.7l-0.3-0.7c-0.5,0.4-1.2,0.8-2.3,0.8c-1.4,0-2.5-0.9-2.5-2.3c0-1.5,1.2-2.3,3.2-2.4l1.5,0v-0.2c0-1-0.7-1.4-1.6-1.4
		c-0.9,0-1.6,0.3-2,0.6l-0.6-1c1-0.7,1.9-0.8,3-0.8c1.8,0,3,0.7,3,2.6v2.7c0,1.4,0,1.9,0.2,2.2H219.6z"/>
	<path id="XMLID_438_" class="st0" d="M227.9,54.8c-0.3-0.1-0.6-0.2-0.9-0.2c-0.5,0-1.1,0.3-1.6,0.7v5.3h-1.7v-7.4h1.4l0.2,0.8
		c0.9-0.8,1.5-1,2.2-1c0.4,0,0.7,0.1,1,0.3L227.9,54.8z"/>
	<path id="XMLID_437_" class="st0" d="M233.5,60.8c-2.5,0-3.8-1.7-3.8-3.8c0-2.2,1.6-3.9,4-3.9c0.9,0,1.6,0.2,2.1,0.5l0,1.4
		c-0.5-0.4-1.2-0.6-2-0.6c-1.4,0-2.4,1.1-2.4,2.5c0,1.4,0.8,2.5,2.4,2.5c0.8,0,1.4-0.2,1.9-0.5l0.5,1.1
		C235.6,60.4,234.6,60.8,233.5,60.8"/>
	<path id="XMLID_436_" class="st0" d="M243.4,60.7v-4.4c0-0.9-0.2-1.7-1.3-1.7c-0.8,0-1.5,0.5-2.1,0.9v5.2h-1.7v-11h1.7v4.5
		c0.8-0.6,1.6-1,2.6-1c1.2,0,2.4,0.6,2.4,2.7v4.8H243.4z"/>
	<rect id="XMLID_435_" x="253.3" y="47.3" class="st0" width="1.1" height="17.1"/>
	<path id="XMLID_434_" class="st0" d="M265,60.8c-1.3,0-1.8-0.7-1.8-1.7v-4.6h-1.4v-1.3h1.4v-1.7l1.7-0.5v2.2h2.4l-0.5,1.3h-1.9v4
		c0,0.6,0.2,0.9,0.8,0.9c0.5,0,1-0.2,1.3-0.5l0.5,1.1C266.7,60.5,265.7,60.8,265,60.8"/>
	<path id="XMLID_433_" class="st0" d="M273.7,54.8c-0.3-0.1-0.6-0.2-0.9-0.2c-0.5,0-1.1,0.3-1.6,0.7v5.3h-1.7v-7.4h1.4l0.2,0.8
		c0.9-0.8,1.5-1,2.2-1c0.4,0,0.7,0.1,1,0.3L273.7,54.8z"/>
	<path id="XMLID_430_" class="st0" d="M280.1,57.2l-1.3,0c-1.2,0-1.7,0.4-1.7,1.1c0,0.7,0.5,1.1,1.4,1.1c0.8,0,1.3-0.3,1.6-0.6V57.2
		z M280.5,60.7l-0.3-0.7c-0.5,0.4-1.2,0.8-2.3,0.8c-1.4,0-2.5-0.9-2.5-2.3c0-1.5,1.2-2.3,3.2-2.4l1.5,0v-0.2c0-1-0.7-1.4-1.6-1.4
		c-0.9,0-1.6,0.3-2,0.6l-0.6-1c1-0.7,1.9-0.8,2.9-0.8c1.8,0,3,0.7,3,2.6v2.7c0,1.4,0,1.9,0.1,2.2H280.5z"/>
	<path id="XMLID_427_" class="st0" d="M284.9,53.3h1.7v7.4h-1.7V53.3z M286.9,51c0,0.5-0.5,1-1.1,1c-0.6,0-1.1-0.5-1.1-1
		c0-0.6,0.5-1,1.1-1C286.4,50,286.9,50.4,286.9,51z"/>
	<path id="XMLID_426_" class="st0" d="M294.8,60.7v-4.4c0-0.8-0.2-1.7-1.2-1.7c-0.8,0-1.5,0.4-2.1,0.9v5.2h-1.7v-7.4h1.4l0.2,0.8
		c0.9-0.6,1.7-1,2.8-1c1.2,0,2.4,0.7,2.4,2.6v4.9H294.8z"/>
	<path id="XMLID_423_" class="st0" d="M299.6,53.3h1.7v7.4h-1.7V53.3z M301.5,51c0,0.5-0.5,1-1.1,1c-0.6,0-1.1-0.5-1.1-1
		c0-0.6,0.5-1,1.1-1C301,50,301.5,50.4,301.5,51z"/>
	<path id="XMLID_422_" class="st0" d="M309.5,60.7v-4.4c0-0.8-0.2-1.7-1.2-1.7c-0.8,0-1.5,0.4-2.1,0.9v5.2h-1.7v-7.4h1.4l0.2,0.8
		c0.9-0.6,1.7-1,2.8-1c1.2,0,2.4,0.7,2.4,2.6v4.9H309.5z"/>
	<path id="XMLID_418_" class="st0" d="M315.5,55.8c0,0.9,0.6,1.5,1.5,1.5c0.9,0,1.5-0.5,1.5-1.5c0-0.8-0.6-1.5-1.6-1.5
		C316.1,54.4,315.5,54.9,315.5,55.8 M315.6,60.8c-0.3,0.2-0.8,0.5-0.8,1.1c0,0.7,0.9,1.2,2.3,1.2c1.3,0,2.1-0.4,2.1-1.1
		C319.2,61,316.5,61.1,315.6,60.8z M316.9,64.3c-2.3,0-3.7-1-3.7-2.2c0-0.8,0.6-1.4,1.4-1.8c-0.4-0.2-0.5-0.6-0.5-0.9
		c0-0.4,0.3-1,1-1.4c-0.8-0.4-1.3-1.3-1.3-2.3c0-1.4,1.2-2.7,3.1-2.7c0.6,0,1.1,0.1,1.5,0.3c0.1,0,0.1,0,0.2,0
		c0.4-0.4,1.2-0.7,2.4-0.6l-0.4,1.3c-0.4-0.1-0.8-0.1-1.1,0c0.5,0.5,0.8,1.1,0.8,1.9c0,1.6-1.4,2.7-3.2,2.7c-0.4,0-0.7,0-1-0.1
		c-0.2,0.2-0.3,0.4-0.3,0.7c0,1.1,5.4,0,5.4,2.7C321.1,63.2,319.8,64.3,316.9,64.3z"/>
	<rect id="XMLID_417_" x="328.3" y="47.3" class="st0" width="1.1" height="17.1"/>
	<path id="XMLID_416_" class="st0" d="M339.6,60.8c-1.2,0-2.1-0.3-2.7-0.7l0.6-1.2c0.5,0.3,1.2,0.6,2,0.6c0.9,0,1.4-0.3,1.4-0.9
		c0-1.5-3.6-0.9-3.6-3.5c0-1.2,1-2.1,2.8-2.1c0.9,0,1.6,0.2,2.2,0.4v1.4c-0.6-0.2-1.3-0.5-2.1-0.5c-0.7,0-1.2,0.2-1.2,0.7
		c0,1.3,3.6,0.9,3.6,3.4C342.7,60.2,341.2,60.8,339.6,60.8"/>
	<path id="XMLID_413_" class="st0" d="M348.1,54.4c-1,0-1.6,0.9-1.6,1.8h3.3C349.7,55.3,349.2,54.4,348.1,54.4 M346.5,57.4
		c0,1.2,0.9,2.1,2.3,2.1c0.7,0,1.4-0.2,2-0.5l0.4,1.1c-0.8,0.5-1.8,0.8-2.7,0.8c-2.6,0-3.8-1.9-3.8-3.9c0-2.1,1.3-3.8,3.4-3.8
		c2.1,0,3.4,1.5,3.4,3.8v0.5H346.5z"/>
	<path id="XMLID_412_" class="st0" d="M358.2,54.8c-0.3-0.1-0.6-0.2-0.9-0.2c-0.5,0-1.1,0.3-1.6,0.7v5.3H354v-7.4h1.4l0.2,0.8
		c0.9-0.8,1.5-1,2.2-1c0.4,0,0.7,0.1,1,0.3L358.2,54.8z"/>
	<polygon id="XMLID_411_" class="st0" points="364.2,60.7 362.9,60.7 359.8,53.3 361.5,53.3 363.6,58.6 363.6,58.6 365.8,53.3 
		367.4,53.3 	"/>
	<path id="XMLID_408_" class="st0" d="M369.6,53.3h1.7v7.4h-1.7V53.3z M371.6,51c0,0.5-0.5,1-1.1,1c-0.6,0-1.1-0.5-1.1-1
		c0-0.6,0.5-1,1.1-1C371.1,50,371.6,50.4,371.6,51z"/>
	<path id="XMLID_407_" class="st0" d="M377.8,60.8c-2.5,0-3.8-1.7-3.8-3.8c0-2.2,1.6-3.9,4-3.9c0.9,0,1.6,0.2,2.1,0.5l0,1.4
		c-0.5-0.4-1.2-0.6-2-0.6c-1.4,0-2.4,1.1-2.4,2.5c0,1.4,0.8,2.5,2.4,2.5c0.8,0,1.4-0.2,1.9-0.5l0.5,1.1
		C379.9,60.4,378.9,60.8,377.8,60.8"/>
	<path id="XMLID_404_" class="st0" d="M385.6,54.4c-1,0-1.6,0.9-1.6,1.8h3.2C387.2,55.3,386.7,54.4,385.6,54.4 M384,57.4
		c0,1.2,0.9,2.1,2.3,2.1c0.7,0,1.4-0.2,2-0.5l0.4,1.1c-0.8,0.5-1.8,0.8-2.7,0.8c-2.6,0-3.8-1.9-3.8-3.9c0-2.1,1.3-3.8,3.4-3.8
		c2.1,0,3.4,1.5,3.4,3.8v0.5H384z"/>
	<path id="XMLID_403_" class="st0" d="M393.5,60.8c-1.2,0-2.1-0.3-2.7-0.7l0.6-1.2c0.5,0.3,1.2,0.6,2,0.6c0.9,0,1.4-0.3,1.4-0.9
		c0-1.5-3.6-0.9-3.6-3.5c0-1.2,1-2.1,2.8-2.1c0.9,0,1.6,0.2,2.2,0.4v1.4c-0.6-0.2-1.3-0.5-2.1-0.5c-0.7,0-1.2,0.2-1.2,0.7
		c0,1.3,3.6,0.9,3.6,3.4C396.6,60.2,395.2,60.8,393.5,60.8"/>
</g>
</svg>
